<svg width="839" height="223" viewBox="0 0 839 223" fill="none" xmlns="http://www.w3.org/2000/svg">
<path d="M280.967 73.0777H280.417C279.042 76.9269 277.392 81.5093 275.468 86.8249C273.635 92.1405 271.71 97.6394 269.694 103.322C267.769 108.912 265.936 114.136 264.195 118.993L263.508 121.055C262.958 122.705 262.27 124.767 261.446 127.242C260.621 129.716 259.75 132.328 258.834 135.078C257.917 137.735 257.047 140.256 256.222 142.639C255.397 144.93 254.755 146.809 254.297 148.275C253.656 148.55 252.968 148.733 252.235 148.825C251.593 149.008 250.769 149.1 249.761 149.1C248.294 149.1 246.965 148.733 245.774 148C244.674 147.175 244.124 145.892 244.124 144.151C244.124 143.326 244.262 142.501 244.537 141.676C244.812 140.76 245.132 139.797 245.499 138.789C246.599 135.673 247.928 131.87 249.486 127.379C251.135 122.888 252.922 117.985 254.847 112.67C256.772 107.354 258.788 101.901 260.896 96.3105C263.004 90.7199 265.066 85.2669 267.082 79.9513C269.098 74.6357 270.977 69.7783 272.718 65.3792C273.452 65.0126 274.551 64.646 276.018 64.2795C277.484 63.9129 278.996 63.7296 280.554 63.7296C282.387 63.7296 284.129 64.0045 285.778 64.5544C287.52 65.1043 288.619 66.0208 289.078 67.3038C291.277 72.6194 293.614 78.6682 296.089 85.4502C298.655 92.1405 301.221 99.1516 303.787 106.483C306.353 113.724 308.782 120.781 311.073 127.654C313.456 134.528 315.564 140.76 317.397 146.35C316.755 147.175 315.885 147.817 314.785 148.275C313.777 148.825 312.631 149.1 311.348 149.1C309.607 149.1 308.278 148.733 307.361 148C306.445 147.175 305.666 145.846 305.024 144.013L297.463 121.605L296.364 117.756C294.531 112.166 292.606 106.529 290.59 100.847C288.665 95.1649 286.832 89.8951 285.091 85.0377C283.441 80.1804 282.066 76.1937 280.967 73.0777ZM258.146 125.73L261.721 116.519H300.075L302.275 125.73H258.146ZM330.995 124.767V112.257H341.993V124.217C341.993 130.083 343.551 134.299 346.667 136.865C349.783 139.431 354.09 140.714 359.589 140.714C363.255 140.714 366.371 140.347 368.937 139.614C371.503 138.789 373.519 137.965 374.986 137.14V112.257H385.984V136.727C385.984 138.652 385.709 140.21 385.159 141.401C384.701 142.501 383.509 143.601 381.585 144.701C379.568 145.892 376.681 147.038 372.924 148.137C369.166 149.237 364.675 149.787 359.451 149.787C353.403 149.787 348.225 148.916 343.917 147.175C339.701 145.342 336.494 142.593 334.294 138.927C332.095 135.169 330.995 130.449 330.995 124.767ZM385.984 119.406H374.986V84.7628C375.444 84.5795 376.131 84.3962 377.048 84.2129C378.056 83.938 379.064 83.8005 380.072 83.8005C382.089 83.8005 383.555 84.2129 384.471 85.0377C385.48 85.7709 385.984 87.054 385.984 88.887V119.406ZM341.993 119.406H330.995V84.7628C331.453 84.5795 332.14 84.3962 333.057 84.2129C334.065 83.938 335.119 83.8005 336.219 83.8005C338.143 83.8005 339.564 84.2129 340.48 85.0377C341.488 85.7709 341.993 87.054 341.993 88.887V119.406ZM406.715 111.707H417.713V130.679C417.713 134.344 418.767 136.956 420.875 138.514C422.983 139.981 425.87 140.714 429.535 140.714C431.093 140.714 432.835 140.439 434.759 139.889C436.684 139.339 438.288 138.698 439.571 137.965C440.121 138.514 440.625 139.202 441.083 140.027C441.541 140.851 441.77 141.814 441.77 142.914C441.77 144.93 440.579 146.579 438.196 147.863C435.813 149.146 432.514 149.787 428.298 149.787C421.883 149.787 416.659 148.367 412.626 145.526C408.685 142.684 406.715 137.965 406.715 131.366V111.707ZM412.351 94.9357V85.8626H440.258C440.533 86.2292 440.808 86.8249 441.083 87.6497C441.358 88.4746 441.496 89.3452 441.496 90.2617C441.496 91.7281 441.129 92.8737 440.396 93.6985C439.663 94.5233 438.654 94.9357 437.371 94.9357H412.351ZM417.713 115.832H406.715V66.0666C407.173 65.8833 407.861 65.7 408.777 65.5167C409.785 65.2418 410.839 65.1043 411.939 65.1043C413.864 65.1043 415.284 65.5167 416.201 66.3415C417.209 67.0747 417.713 68.312 417.713 70.0533V115.832ZM514.689 116.244C514.689 123.026 513.406 128.937 510.839 133.978C508.273 139.018 504.653 142.914 499.979 145.663C495.305 148.412 489.806 149.787 483.483 149.787C477.159 149.787 471.614 148.412 466.848 145.663C462.174 142.914 458.554 139.018 455.988 133.978C453.422 128.937 452.139 123.026 452.139 116.244C452.139 109.37 453.422 103.459 455.988 98.51C458.646 93.4694 462.312 89.5743 466.986 86.8249C471.752 84.0754 477.25 82.7007 483.483 82.7007C489.715 82.7007 495.168 84.0754 499.842 86.8249C504.516 89.5743 508.136 93.4694 510.702 98.51C513.36 103.459 514.689 109.37 514.689 116.244ZM483.483 91.7739C477.342 91.7739 472.439 93.9734 468.773 98.3725C465.199 102.68 463.412 108.637 463.412 116.244C463.412 123.942 465.153 129.945 468.636 134.253C472.21 138.56 477.159 140.714 483.483 140.714C489.715 140.714 494.572 138.56 498.055 134.253C501.629 129.854 503.416 123.851 503.416 116.244C503.416 108.637 501.629 102.68 498.055 98.3725C494.572 93.9734 489.715 91.7739 483.483 91.7739Z" fill="black"/>
<path d="M584.79 73.9025L584.102 64.4169H616.133C616.408 64.7835 616.683 65.3792 616.958 66.2041C617.233 67.0289 617.371 67.8996 617.371 68.816C617.371 70.2824 617.004 71.5197 616.271 72.5278C615.538 73.4443 614.484 73.9025 613.109 73.9025H584.79ZM585.065 64.4169L585.752 73.9025H553.584C553.309 73.4443 553.034 72.8027 552.759 71.9779C552.484 71.1531 552.346 70.2824 552.346 69.3659C552.346 67.8079 552.713 66.6165 553.446 65.7916C554.179 64.8752 555.233 64.4169 556.608 64.4169H585.065ZM579.291 70.1908H590.426V147.725C589.968 147.908 589.235 148.092 588.227 148.275C587.31 148.55 586.348 148.687 585.34 148.687C583.323 148.687 581.811 148.275 580.803 147.45C579.795 146.625 579.291 145.342 579.291 143.601V70.1908ZM626.345 124.767V112.257H637.343V124.217C637.343 130.083 638.901 134.299 642.017 136.865C645.133 139.431 649.44 140.714 654.939 140.714C658.605 140.714 661.721 140.347 664.287 139.614C666.854 138.789 668.87 137.965 670.336 137.14V112.257H681.334V136.727C681.334 138.652 681.059 140.21 680.509 141.401C680.051 142.501 678.859 143.601 676.935 144.701C674.919 145.892 672.032 147.038 668.274 148.137C664.517 149.237 660.026 149.787 654.802 149.787C648.753 149.787 643.575 148.916 639.267 147.175C635.052 145.342 631.844 142.593 629.644 138.927C627.445 135.169 626.345 130.449 626.345 124.767ZM681.334 119.406H670.336V84.7628C670.794 84.5795 671.482 84.3962 672.398 84.2129C673.406 83.938 674.415 83.8005 675.423 83.8005C677.439 83.8005 678.905 84.2129 679.822 85.0377C680.83 85.7709 681.334 87.054 681.334 88.887V119.406ZM637.343 119.406H626.345V84.7628C626.803 84.5795 627.491 84.3962 628.407 84.2129C629.415 83.938 630.469 83.8005 631.569 83.8005C633.494 83.8005 634.914 84.2129 635.831 85.0377C636.839 85.7709 637.343 87.054 637.343 88.887V119.406ZM730.247 82.7007C735.929 82.7007 741.016 83.938 745.507 86.4125C750.089 88.7953 753.663 92.4612 756.229 97.4102C758.887 102.359 760.216 108.637 760.216 116.244C760.216 123.942 758.841 130.266 756.092 135.215C753.434 140.164 749.722 143.83 744.957 146.213C740.191 148.596 734.646 149.787 728.323 149.787C723.832 149.787 719.753 149.237 716.088 148.137C712.513 147.038 709.581 145.846 707.289 144.563C705.365 143.28 704.036 142.089 703.303 140.989C702.569 139.889 702.203 138.377 702.203 136.452V90.6741H713.201V136.452C714.575 137.46 716.592 138.423 719.249 139.339C721.907 140.256 724.932 140.714 728.323 140.714C734.555 140.714 739.549 138.744 743.307 134.803C747.156 130.862 749.081 124.676 749.081 116.244C749.081 107.721 747.156 101.534 743.307 97.6852C739.458 93.7443 734.555 91.7739 728.598 91.7739C724.932 91.7739 721.678 92.5071 718.837 93.9734C715.996 95.3482 713.659 96.952 711.826 98.785L709.764 89.8493C711.78 88.2913 714.484 86.7332 717.875 85.1752C721.266 83.5256 725.39 82.7007 730.247 82.7007ZM713.201 92.8737H702.203V58.918C702.661 58.7347 703.348 58.5514 704.265 58.3682C705.273 58.0932 706.327 57.9557 707.427 57.9557C709.351 57.9557 710.772 58.3682 711.688 59.193C712.697 59.9262 713.201 61.1634 713.201 62.9047V92.8737ZM781.363 123.255L780.813 114.594L822.33 108.958C821.963 103.917 820.222 99.7931 817.106 96.5854C813.99 93.2861 809.682 91.6364 804.184 91.6364C798.501 91.6364 793.782 93.6985 790.024 97.8227C786.358 101.855 784.525 107.675 784.525 115.282V118.306C785.167 125.638 787.549 131.228 791.674 135.078C795.889 138.835 801.617 140.714 808.858 140.714C812.707 140.714 816.189 140.072 819.306 138.789C822.422 137.506 824.896 136.132 826.729 134.665C827.737 135.307 828.516 136.086 829.066 137.002C829.708 137.827 830.028 138.789 830.028 139.889C830.028 141.63 829.02 143.28 827.004 144.838C825.079 146.305 822.467 147.496 819.168 148.412C815.96 149.329 812.34 149.787 808.308 149.787C801.251 149.787 795.11 148.504 789.886 145.938C784.754 143.372 780.767 139.568 777.926 134.528C775.177 129.395 773.802 123.163 773.802 115.832C773.802 110.608 774.535 105.979 776.002 101.947C777.56 97.8227 779.668 94.34 782.326 91.4989C785.075 88.6579 788.328 86.5041 792.086 85.0377C795.844 83.4797 799.922 82.7007 804.321 82.7007C809.912 82.7007 814.815 83.8921 819.031 86.275C823.338 88.6579 826.683 92.003 829.066 96.3105C831.541 100.526 832.778 105.384 832.778 110.883C832.778 112.899 832.32 114.365 831.403 115.282C830.487 116.106 829.204 116.611 827.554 116.794L781.363 123.255Z" fill="#549BEE"/>
<rect x="2" y="27" width="179" height="170" rx="54" fill="black" stroke="black" stroke-width="4"/>
<path d="M110.36 113L126 104.159L66 70L66 88.0841L110.36 113Z" fill="#549BEE"/>
<path d="M148 116.099L131.733 107.767L110.133 119.996L66 95L66 112.605L94.9333 128.866L66 144.992L66 163L148 116.099Z" fill="#549BEE"/>
<path d="M66 121L82 129.633L66 138L66 121Z" fill="#549BEE"/>
</svg>
